<svg class="p-download-illo" width="1100" height="420" viewBox="0 0 1100 420" fill="none" xmlns="http://www.w3.org/2000/svg" preserveAspectRatio="xMaxYMax">
	<path d="M1100 420.996H0.170898V421.104V420.996L680.099 58.5314C692.752 51.7653 707.978 51.9801 720.417 58.9609L1100 272.252V420.996Z" fill="#4A154B">
	</path>
	<path d="M468.432 308.767L573.085 245.832C578.768 242.503 585.846 242.503 591.636 245.832L712.588 322.084C720.201 326.487 729.53 326.594 737.143 322.299L804.053 281.917" stroke="#623B61" stroke-width="2" stroke-miterlimit="10" stroke-linecap="round" stroke-linejoin="round">
	</path>
	<path class="p-download-illo__connecting-line" d="M468.432 308.767L573.085 245.832C578.768 242.503 585.846 242.503 591.636 245.832L712.588 322.084C720.201 326.487 729.53 326.594 737.143 322.299L804.053 281.917" stroke="#FFFFFF" stroke-width="2" stroke-miterlimit="10" stroke-linecap="round" stroke-linejoin="round">
	</path>
	<path d="M690.285 239.925L813.596 173.554L1017.01 291.368L921.038 353.444C918.25 355.27 914.926 356.344 911.602 356.666L897.341 357.74C894.875 357.847 892.516 357.203 890.478 356.021L690.285 239.925Z" fill="black">
	</path>
	<path d="M889.406 352.692L1017.01 277.836L1028.27 283.313C1032.23 285.247 1032.34 290.724 1028.59 292.872L918.679 354.41C915.248 356.343 911.173 356.988 907.313 356.236L889.406 352.692Z" fill="black">
	</path>
	<path d="M893.802 344.208L1017.11 277.836V282.776C1017.11 286.428 1015.08 289.865 1011.86 291.583L898.198 352.799C895.41 354.303 892.194 354.196 889.406 352.692L886.403 350.974L893.802 344.208Z" fill="#381038">
	</path>
	<path d="M822.175 155.296L822.497 19.9759L1008.86 127.803L1008.54 263.123L822.175 155.296ZM916.428 79.0442C915.463 78.5073 914.712 77.1111 914.712 76.0371C914.712 74.9632 915.463 74.5336 916.428 75.0705C917.393 75.6075 918.143 77.0037 918.143 78.0777C918.143 79.1517 917.393 79.5812 916.428 79.0442ZM1017.44 122.97L814.026 5.26245L813.597 160.236L1017.01 277.836L1017.44 122.97Z" fill="#F4EDE4">
	</path>
	<path d="M822.496 20.0833L822.175 155.296L1008.54 263.123L1008.86 127.803L822.496 20.0833Z" fill="#4A154B">
	</path>
	<path d="M916.427 67.4454C915.462 66.9084 914.712 67.338 914.712 68.412C914.712 69.4859 915.462 70.8821 916.427 71.4191C917.393 71.9561 918.143 71.5265 918.143 70.4525C918.143 69.3786 917.393 67.9824 916.427 67.4454Z" fill="#4A154B">
	</path>
	<path d="M1017.01 277.836L1023.33 274.4C1025.37 273.326 1026.66 271.07 1026.66 268.708V117.385L1017.44 122.647L1017.01 277.836Z" fill="#381038">
	</path>
	<path d="M813.597 5.26245L822.818 0L1026.76 117.385L1017.44 122.97L813.597 5.26245Z" fill="#F4EDE4">
	</path>
	<path d="M690.285 226.393V233.911C690.285 236.059 691.465 238.099 693.288 239.173L889.406 352.799C891.336 353.873 893.695 352.477 893.695 350.329V344.208L690.285 226.393Z" fill="#4A154B">
	</path>
	<path d="M690.285 226.393L813.596 160.022L1017.01 277.836L893.802 344.208L690.285 226.393Z" fill="#F4EDE4">
	</path>
	<path d="M765.558 217.372L822.282 186.764C823.783 185.904 825.713 185.904 827.214 186.871L965.323 266.882C967.253 268.063 967.253 270.855 965.216 271.929L909.028 302.215C907.098 303.289 904.739 303.182 902.916 302.108L765.451 222.419C763.521 221.345 763.521 218.446 765.558 217.372Z" fill="#4A154B">
	</path>
	<path d="M773.494 263.445L798.37 250.02C798.799 249.806 799.443 249.806 799.872 250.02L846.087 276.977C847.052 277.514 847.052 279.018 846.087 279.555L822.068 292.55C820.995 293.087 819.709 293.087 818.636 292.442L773.386 266.13C772.314 265.593 772.421 263.982 773.494 263.445Z" fill="#4A154B">
	</path>
	<path d="M984.195 258.827L839.223 174.842L836.328 176.453C835.042 177.098 835.042 178.923 836.328 179.675L975.724 260.438C977.44 261.404 979.584 261.512 981.407 260.545L984.195 258.827Z" fill="#4A154B">
	</path>
	<path d="M1013.79 287.308L1008 290.638C1006.82 291.282 1005.85 290.96 1005.85 289.671C1005.85 288.49 1006.82 286.879 1008 286.235L1013.79 282.905C1014.97 282.261 1015.93 282.583 1015.93 283.872C1015.93 285.161 1014.97 286.664 1013.79 287.308Z" fill="black">
	</path>
	<path d="M999.314 295.471L993.523 298.8C992.344 299.444 991.379 299.122 991.379 297.833C991.379 296.652 992.344 295.041 993.523 294.397L999.314 291.067C1000.49 290.423 1001.46 290.745 1001.46 292.034C1001.46 293.215 1000.49 294.719 999.314 295.471Z" fill="black">
	</path>
	<g class="p-download-illo__logo">
		<path d="M897.447 136.716L891.55 133.28C888.333 131.347 885.652 132.958 885.652 136.609C885.652 140.368 888.226 144.879 891.55 146.812C894.767 148.745 897.447 147.134 897.447 143.483V136.716Z" fill="#F4EDE4">
		</path>
		<path d="M906.24 141.872C903.023 139.938 900.343 141.549 900.343 145.201V162.17C900.343 165.929 902.916 170.439 906.24 172.372C909.457 174.306 912.138 172.695 912.138 168.936V151.967C912.138 148.315 909.564 143.697 906.24 141.872Z" fill="#F4EDE4">
		</path>
		<path d="M906.347 107.934C903.13 106.001 900.449 107.612 900.449 111.371C900.449 115.13 903.023 119.64 906.347 121.574L912.244 125.01V118.244C912.244 114.378 909.564 109.867 906.347 107.934Z" fill="#F4EDE4">
		</path>
		<path d="M906.347 124.903L891.657 116.418C888.44 114.485 885.76 116.096 885.76 119.748C885.76 123.507 888.333 128.017 891.657 129.95L906.347 138.435C909.564 140.368 912.245 138.757 912.245 135.106C912.138 131.347 909.564 126.836 906.347 124.903Z" fill="#F4EDE4">
		</path>
		<path d="M935.728 141.979C932.511 140.046 929.83 141.657 929.83 145.308V152.074L935.728 155.511C938.944 157.444 941.625 155.941 941.625 152.182C941.625 148.423 939.052 143.805 935.728 141.979Z" fill="#F4EDE4">
		</path>
		<path d="M921.037 116.419C917.82 114.485 915.14 116.096 915.14 119.855V136.824C915.14 140.583 917.713 145.094 921.037 147.027C924.254 148.96 926.935 147.349 926.935 143.697V126.729C926.935 122.862 924.361 118.352 921.037 116.419Z" fill="#F4EDE4">
		</path>
		<path d="M920.93 167.325L915.032 163.888V170.654C915.032 174.413 917.606 178.924 920.93 180.857C924.146 182.79 926.827 181.179 926.827 177.42C926.827 173.769 924.146 169.258 920.93 167.325Z" fill="#F4EDE4">
		</path>
		<path d="M935.727 158.948L921.037 150.463C917.82 148.53 915.14 150.141 915.14 153.793C915.14 157.552 917.713 162.062 921.037 163.995L935.727 172.48C938.944 174.413 941.625 172.802 941.625 169.15C941.625 165.392 938.944 160.773 935.727 158.948Z" fill="#F4EDE4">
		</path>
	</g>
	<path d="M385.866 292.55C404.417 281.81 434.333 281.81 452.669 292.55C453.634 293.087 454.492 293.731 455.349 294.268C474.436 289.757 497.275 291.905 512.716 300.927C530.623 311.344 532.875 327.346 519.471 339.16C532.768 348.933 531.695 363.109 516.04 372.131C499.313 381.797 472.291 381.797 455.671 372.131L385.437 331.32C367.316 320.58 367.316 303.289 385.866 292.55Z" fill="black">
	</path>
	<path d="M401.628 297.705C420.179 286.965 450.095 286.965 468.431 297.705C469.396 298.242 470.254 298.886 471.112 299.423C490.198 294.912 513.037 297.06 528.478 306.082C546.385 316.499 548.637 332.501 535.234 344.315C548.53 354.088 547.457 368.264 531.802 377.286C515.075 386.952 483.55 389.744 458.244 373.634L401.199 336.475C382.971 325.843 383.078 308.444 401.628 297.705Z" fill="black">
	</path>
	<path d="M387.045 261.512C405.596 250.772 435.512 250.772 453.848 261.512C454.813 262.049 455.671 262.693 456.529 263.23C475.615 258.719 498.455 260.867 513.895 269.889C531.802 280.306 534.054 296.308 520.651 308.122C533.947 317.895 532.874 332.072 517.219 341.093C500.492 350.759 473.471 350.759 456.85 341.093L386.616 300.282C368.388 289.542 368.495 272.144 387.045 261.512Z" fill="#F4EDE4">
	</path>
	<path d="M520.758 308.122C526.655 302.86 529.55 296.738 529.336 290.724H529.443V319.399C528.264 315.425 525.369 311.559 520.758 308.122Z" fill="#381038">
	</path>
	<path d="M373.106 280.521C372.891 287.717 377.502 294.805 386.831 300.282L457.065 341.093C473.685 350.759 500.706 350.759 517.434 341.093C524.94 336.69 529.121 331.105 529.872 325.413H529.979V353.229C529.55 359.243 525.368 365.257 517.434 369.876C500.706 379.541 473.685 379.541 457.065 369.876L386.831 329.065C378.038 324.017 373.535 317.358 373.106 310.7V310.807V280.521Z" fill="#381038">
	</path>
	<path d="M466.501 345.174C463.069 344.1 459.96 342.704 457.065 341.093L386.831 300.282C377.502 294.805 372.891 287.609 373.106 280.521V310.807V310.7C373.535 317.358 378.038 324.017 386.831 329.065L457.065 369.876C459.96 371.594 463.177 372.883 466.501 373.957V345.174Z" fill="#4A154B">
	</path>
	<path d="M1087.13 408.539L1047.24 391.248L1016.58 408.539L1043.92 429.266L1051.1 429.588L1087.13 408.539Z" fill="black">
	</path>
	<path d="M1083.49 372.775L1043.71 349.792L1004.14 372.775L1043.92 395.758L1083.49 372.775Z" fill="white">
	</path>
	<path d="M1015.61 372.775L1043.71 356.451L1072.01 372.775L1043.92 389.1L1015.61 372.775Z" fill="black">
	</path>
	<path d="M1043.92 429.266L1075.44 410.901L1083.49 372.775L1043.92 395.758V429.266Z" fill="#381038">
	</path>
	<path d="M1043.92 395.758L1004.14 372.775L1011.43 410.472L1043.92 429.266V395.758Z" fill="#4A154B">
	</path>
	<path d="M1068.26 327.024C1068.26 327.024 1058.72 325.413 1053.78 330.353C1050.14 334.005 1050.03 340.234 1050.25 343.241C1047.35 346.678 1045.42 350.007 1044.03 353.122L1043.17 318.003C1045.42 318.218 1052.82 318.755 1057 314.566C1061.93 309.626 1060.33 300.067 1060.33 300.067C1060.33 300.067 1050.78 298.456 1045.85 303.397C1044.35 304.9 1043.49 306.833 1042.95 308.767L1042.63 295.664C1042.63 295.235 1042.31 294.912 1041.88 294.912C1041.45 294.912 1041.02 295.235 1041.02 295.664L1040.38 323.48C1038.77 319.936 1036.41 317.358 1034.27 315.425C1034.05 313.707 1033.41 310.7 1031.27 309.196C1028.16 307.048 1023.22 308.767 1023.22 308.767C1023.22 308.767 1023.22 314.029 1026.33 316.177C1028.59 317.788 1031.7 317.251 1033.3 316.929C1036.09 319.399 1039.2 323.373 1040.27 328.742L1039.95 349.148C1038.34 346.248 1035.88 343.026 1032.34 340.449C1032.34 338.945 1032.34 330.568 1027.3 326.595C1021.83 322.299 1012.5 324.984 1012.5 324.984C1012.5 324.984 1012.07 334.757 1017.54 339.053C1021.4 342.167 1027.19 341.63 1030.3 341.093C1035.56 344.422 1038.45 349.363 1039.84 352.799L1039.09 376.319V376.427C1039.09 377.93 1040.38 379.219 1041.99 379.112C1043.49 379.112 1044.78 377.823 1044.67 376.212L1044.24 357.632C1045.42 353.981 1047.46 349.47 1051.1 344.852C1053.25 345.067 1060.86 345.604 1065.04 341.415C1069.87 336.582 1068.26 327.024 1068.26 327.024Z" fill="#779846">
	</path>
	<path d="M698.97 174.735L665.515 155.404L632.274 174.735L665.729 194.174L698.97 174.735Z" fill="black">
	</path>
	<path d="M696.075 164.854L662.62 145.523L629.272 164.854L662.835 184.186L696.075 164.854Z" fill="#F4EDE4">
	</path>
	<path d="M696.075 164.854L662.62 145.523L631.417 163.566L664.872 183.005L696.075 164.854Z" fill="black">
	</path>
	<path d="M662.835 193.852L696.075 174.52V164.854L662.835 184.186V193.852Z" fill="#B7B2AB">
	</path>
	<path d="M662.834 184.186L629.272 164.854V174.52L662.834 193.852V184.186Z" fill="#F4EDE4">
	</path>
	<path d="M696.075 164.854L662.62 145.523L657.045 148.745C653.721 150.678 650.075 152.182 646.322 153.148L629.38 157.551L662.835 176.883L679.455 172.372C683.744 171.191 687.926 169.473 691.786 167.217L696.075 164.854Z" fill="#F4EDE4">
	</path>
	<path d="M778.426 131.347L760.09 120.822L755.587 123.399L773.923 134.032C775.21 134.783 777.14 134.783 778.426 134.032C779.713 133.28 779.713 132.098 778.426 131.347Z" fill="black">
	</path>
	<path d="M759.661 54.0207C772.1 61.2163 772.1 72.8152 759.769 80.0108C747.438 87.2064 727.386 87.2064 714.948 80.0108C702.509 72.8152 702.509 61.2163 714.84 54.0207C727.172 46.8251 747.223 46.8251 759.661 54.0207Z" fill="#F4EDE4">
	</path>
	<path d="M759.77 80.0108C747.439 87.2064 727.387 87.2064 714.949 80.0108C710.016 77.1111 707.014 73.567 706.049 69.8081L710.445 118.674H710.552C711.089 122.218 713.662 125.655 718.38 128.34C728.888 134.461 745.83 134.461 756.338 128.34C760.949 125.655 763.523 122.218 764.059 118.674L768.562 70.2377C767.49 73.7818 764.595 77.2185 759.77 80.0108Z" fill="#C05B8C">
	</path>
	<path d="M767.167 105.679C766.846 105.464 765.666 104.927 765.345 104.712L764.058 118.674C763.522 122.218 761.055 125.655 756.337 128.339C745.936 134.461 728.887 134.461 718.379 128.339C717.95 128.125 717.628 127.91 717.307 127.695C718.701 129.091 720.416 130.487 722.561 131.669C734.999 138.864 755.051 138.864 767.382 131.669C779.713 124.581 779.606 112.874 767.167 105.679Z" fill="black">
	</path>
	<path d="M737.465 82.9105C729.638 82.9105 722.239 81.1922 716.77 77.9703C711.516 74.9632 708.728 71.0968 708.621 67.0158C708.621 62.9347 711.409 59.0684 716.556 56.1687C722.025 52.9468 729.316 51.2284 737.251 51.2284C745.078 51.2284 752.477 52.9468 757.946 56.1687C763.2 59.1758 765.988 63.0421 766.095 67.1232C766.095 71.2042 763.307 75.0705 758.16 77.9703C752.584 81.1922 745.293 82.9105 737.465 82.9105Z" fill="#F4EDE4">
	</path>
	<path d="M757.946 62.7198C752.477 59.4979 745.079 57.7795 737.251 57.7795C729.423 57.7795 722.132 59.4979 716.556 62.7198C712.803 64.8677 710.337 67.5527 709.265 70.345C710.337 73.2447 712.91 75.8223 716.663 78.0776C722.132 81.2995 729.531 83.0179 737.358 83.0179C745.186 83.0179 752.477 81.2995 757.946 78.0776C761.699 75.9297 764.165 73.2447 765.237 70.4524C764.272 67.5527 761.699 64.8677 757.946 62.7198Z" fill="black">
	</path>
	<path d="M769.526 90.6431L759.125 85.1659C757.946 84.5215 757.088 85.0585 757.088 86.3472C757.088 87.636 757.946 89.247 759.125 89.8914L769.526 95.3686C771.349 96.4426 772.958 98.1609 774.137 100.201C775.317 102.242 776.067 104.497 776.067 106.538C776.067 108.578 775.317 110.082 774.137 110.726C772.958 111.371 771.349 111.263 769.526 110.297L759.125 104.82C757.946 104.175 757.088 104.712 757.088 106.001C757.088 107.29 757.946 108.901 759.125 109.545L767.489 116.955C773.386 120.392 780.142 115.667 780.142 108.901C780.142 102.242 775.424 93.9724 769.526 90.6431Z" fill="#C05B8C">
	</path>
	<path d="M767.061 92.3614L756.66 86.8841C755.481 86.2397 754.623 86.7767 754.623 88.0655C754.623 89.3543 755.481 90.9652 756.66 91.6096L767.061 97.0869C768.884 98.1608 770.493 99.8792 771.672 101.92C772.852 103.96 773.602 106.216 773.602 108.256C773.602 110.297 772.852 111.8 771.672 112.445C770.493 113.089 768.884 112.982 767.061 112.015L756.66 106.538C755.481 105.893 754.623 106.43 754.623 107.719C754.623 109.008 755.481 110.619 756.66 111.263L767.061 116.741C772.959 120.177 777.677 117.385 777.677 110.726C777.57 103.96 772.852 95.6907 767.061 92.3614Z" fill="#C05B8C">
	</path>
	<path d="M759.125 104.82C759.125 104.82 756.445 103.316 754.944 103.96C753.55 104.605 754.193 108.364 754.836 109.33C755.587 110.404 759.125 104.82 759.125 104.82Z" fill="#C05B8C">
	</path>
	<path d="M758.59 84.9511C758.59 84.9511 756.445 84.1993 755.266 84.9511C754.086 85.5954 754.408 87.9582 754.622 88.71C754.837 89.4617 759.126 86.1324 759.126 86.1324L758.59 84.9511Z" fill="#C05B8C">
	</path>
	<path class="p-download-illo__steam-line-one" d="M730,38.3c0-3.8,4.2-3.8,4.2-7.6c0-3.8-4.2-3.8-4.2-7.6c0-3.8,4.2-3.8,4.2-7.6" stroke="#D597B2" stroke-width="2" stroke-miterlimit="10" stroke-linecap="round" stroke-linejoin="round">
	</path>
	<path class="p-download-illo__steam-line-two" d="M739.3,41.5c0-3.8,4.2-3.8,4.2-7.6c0-3.8-4.2-3.8-4.2-7.6c0-3.8,4.2-3.8,4.2-7.6" stroke="#D597B2" stroke-width="2" stroke-miterlimit="10" stroke-linecap="round" stroke-linejoin="round">
	</path>
	<path class="p-download-illo__steam-line-three" d="M749.8,33.1c0-3.8,4.2-3.9,4.2-7.6s-4.2-3.8-4.2-7.6c0-3.8,4.2-3.8,4.2-7.6" stroke="#D597B2" stroke-width="2" stroke-miterlimit="10" stroke-linecap="round" stroke-linejoin="round">
	</path>
	<path d="M787.217 368.372L787.861 365.902C788.29 364.398 789.791 363.539 791.292 363.969L795.367 365.043C796.117 365.257 796.76 365.365 797.404 365.58C797.618 365.58 797.726 365.687 797.94 365.687C798.476 365.794 799.012 366.009 799.548 366.117C800.192 366.224 800.406 366.331 801.05 366.546L810.378 369.338L806.625 376.641L794.294 373.205L793.544 372.99C793.222 372.883 793.008 372.883 792.686 372.775L789.255 371.809C787.646 371.379 786.788 369.875 787.217 368.372Z" fill="black">
	</path>
	<path d="M809.95 366.976C810.593 367.083 811.88 367.513 811.773 367.513L845.978 376.427L859.81 385.341L854.02 385.663L843.297 386.2L806.519 376.534L809.95 366.976Z" fill="black">
	</path>
	<path d="M859.703 383.085L843.19 383.837L837.614 377.178L845.871 374.064L859.703 383.085Z" fill="white">
	</path>
	<path d="M793.115 360.102L790.542 369.875L843.191 383.837L842.869 383.3C841.046 380.293 842.011 376.427 844.906 374.601L845.764 374.064L793.115 360.102Z" fill="#C05B8C">
	</path>
	<path d="M852.52 381.152C852.948 379.326 854.771 379.971 854.771 379.971L859.596 383.085L853.806 383.407C853.914 383.407 852.091 383.085 852.52 381.152Z" fill="black">
	</path>
	<path d="M782.5 360.854L781.642 363.969C781.106 365.794 782.285 367.728 784.108 368.264L790.542 369.983L793.115 360.21L786.682 358.491C784.859 357.847 782.929 358.921 782.5 360.854Z" fill="#F2606A">
	</path>
	<path d="M798.155 371.916C793.758 370.735 797.082 361.176 800.728 362.143C796.868 361.069 794.831 360.532 790.97 359.565C788.075 358.814 785.18 368.479 788.397 369.338C792.364 370.305 794.295 370.842 798.155 371.916Z" fill="white">
	</path>
	<path d="M796.332 371.379C792.15 370.305 795.367 360.639 798.905 361.606C798.155 361.391 797.833 361.284 797.082 361.069C793.651 360.21 790.542 369.768 794.509 370.842C795.152 371.057 795.581 371.164 796.332 371.379Z" fill="black">
	</path>
	<path d="M792.365 370.412C788.612 369.446 791.721 359.78 794.938 360.639C794.187 360.424 793.866 360.317 793.115 360.102C790.006 359.243 787.003 369.016 790.542 369.875C791.292 370.09 791.614 370.198 792.365 370.412Z" fill="black">
	</path>
</svg>
