<svg xmlns="http://www.w3.org/2000/svg" width="14.857" height="10.805" viewBox="0 0 14.857 10.805">
  <g id="local_shipping" transform="translate(984 -10)">
    <path id="Path_3" data-name="Path 3" d="M13.831,6.7H11.805V4H2.351A1.355,1.355,0,0,0,1,5.351v7.429H2.351a2.026,2.026,0,1,0,4.052,0h4.052a2.026,2.026,0,0,0,4.052,0h1.351V9.4ZM4.377,13.792A1.013,1.013,0,1,1,5.39,12.779,1.012,1.012,0,0,1,4.377,13.792Zm9.117-6.078L14.817,9.4H11.805V7.714Zm-1.013,6.078a1.013,1.013,0,1,1,1.013-1.013A1.012,1.012,0,0,1,12.481,13.792Z" transform="translate(-985 6)" fill="#fff"/>
  </g>
</svg>
