<svg xmlns="http://www.w3.org/2000/svg" width="14" height="14" viewBox="0 0 14 14">
  <g id="Group_11" data-name="Group 11" transform="translate(0.4 0.717)">
    <rect id="Rectangle_28" data-name="Rectangle 28" width="14" height="14" transform="translate(-0.4 -0.717)" fill="#ececec" opacity="0"/>
    <path id="Icon_awesome-box" data-name="Icon awesome-box" d="M9.852,3.569,8.873.634A.926.926,0,0,0,7.993,0H5.259V3.713H9.875A.883.883,0,0,0,9.852,3.569ZM4.641,0H1.907a.926.926,0,0,0-.88.634L.048,3.569a.883.883,0,0,0-.023.143H4.641ZM0,4.331V8.972A.928.928,0,0,0,.928,9.9H8.972A.928.928,0,0,0,9.9,8.972V4.331Z" transform="translate(1.65 1.507)" fill="#fff"/>
  </g>
</svg>
